PathFileType	4	(X/Y/Z)	/Users/niels/Desktop/University/Third Semester/Perception and Action/Exam/Gymnastics Motion Tracking/Code for Gym Tracking/Analyzed Data/Webcam_Backflip/idid 15_1_trajectory_Sports2D/idid 15_1_trajectory_Sports2D_px_person00.trc
DataRate	CameraRate	NumFrames	NumMarkers	Units	OrigDataRate	OrigDataStartFrame	OrigNumFrames
29.702970297029704	29.702970297029704	7	22	m	29.702970297029704	75	101
Frame#	Time	Hip			RHip			RKnee			RAnkle			RBigToe			RSmallToe			RHeel			LHip			LKnee			LAnkle			LBigToe			LSmallToe			LHeel			Neck			Head			Nose			RShoulder			RElbow			RWrist			LShoulder			LElbow			LWrist		
		X1	Y1	Z1	X2	Y2	Z2	X3	Y3	Z3	X4	Y4	Z4	X5	Y5	Z5	X6	Y6	Z6	X7	Y7	Z7	X8	Y8	Z8	X9	Y9	Z9	X10	Y10	Z10	X11	Y11	Z11	X12	Y12	Z12	X13	Y13	Z13	X14	Y14	Z14	X15	Y15	Z15	X16	Y16	Z16	X17	Y17	Z17	X18	Y18	Z18	X19	Y19	Z19	X20	Y20	Z20	X21	Y21	Z21	X22	Y22	Z22
75	2.525	1.0058266451513609	-0.4065929458624974	0.0	0.9964886522699598	-0.4099700839291039	0.0	1.0148505734750803	-0.2192194935975314	0.0	1.0421937726459538	-0.08549341209493545	0.0	1.0251994486007776	-0.03230124596693321	0.0	1.036057099066215	-0.031067244584813115	0.0	1.0449175208273476	-0.07110936510274662	0.0	1.0141483944281156	-0.40386779567964276	0.0	1.0287095525464514	-0.236375100654283	0.0	1.0392872246128557	-0.09037970752628527	0.0	1.0512729374985965	-0.037192061805298625	0.0	1.035013490545009	-0.4799740446890154	0.0	1.0446250066964742	-0.07950944731840862	0.0	1.034769927679003	-0.6078582391765159	0.0	1.0900947350877301	-0.6692924485623697	0.0	1.0710634676813076	-0.6541493820255337	0.0	1.0178436217149556	-0.6009954436592572	0.0	1.0188747832997345	-0.6915695799604757	0.0	1.035157703583519	-0.7722274450237623	0.0	1.0419161528622811	-0.5848117933830835	0.0	1.0433455958371718	-0.6647790349565963	0.0	1.0429604682134899	-0.7500417570097861	0.0
76	2.5586666666666664	1.0030869831392646	-0.4066035864242654	0.0	0.9924907964391181	-0.4091019225816607	0.0	1.0041776816339054	-0.2190459056848721	0.0	1.045524378102829	-0.08769027893767799	0.0	1.0300499371680654	-0.03280338198453767	0.0	1.0420692552077653	-0.033260907553497664	0.0	1.0507898792672012	-0.07528732799445832	0.0	1.0114671138399638	-0.40339726700464845	0.0	1.023714048503808	-0.23784681964148544	0.0	1.0436078536295577	-0.09437906671453485	0.0	1.0606970372165694	-0.04026610354664446	0.0	1.0421780680446293	-0.3291479109386275	0.0	1.0514835367149689	-0.08310977806995631	0.0	1.0351342077952443	-0.6077917629444393	0.0	1.0896966622433655	-0.6704246395566559	0.0	1.0713105109628411	-0.655498768783879	0.0	1.0181779908167667	-0.6007742573221709	0.0	1.018643052329943	-0.6917438957173149	0.0	1.035631181756489	-0.7718797027628185	0.0	1.042395765689579	-0.5833004030917787	0.0	1.0422941083390866	-0.6615265668064477	0.0	1.0425837502956572	-0.7477332749407342	0.0
77	2.592333333333333	1.0009165737016499	-0.4060838906573512	0.0	0.9890522042693182	-0.40693947041977135	0.0	0.9897995129152455	-0.22129397485417074	0.0	1.0497350044735316	-0.09372871849559516	0.0	1.0366062228945012	-0.03518938412208238	0.0	1.0499601601318918	-0.037603816127256565	0.0	1.0584154415673623	-0.08292639868559917	0.0	1.0095307116595766	-0.40195429021234014	0.0	1.017361669057187	-0.2418289574369108	0.0	1.049474195824722	-0.10244449931804911	0.0	1.069228110024747	-0.04681433836609889	0.0	1.051739575774712	-0.19982210783322793	0.0	1.0614858708347097	-0.09016311890919343	0.0	1.0364283537052936	-0.6079463414566769	0.0	1.0897500091908823	-0.6717883313491715	0.0	1.0716386479282871	-0.658332814750281	0.0	1.0188633171948416	-0.6005166960343078	0.0	1.018169737621042	-0.691846769199499	0.0	1.035890119063557	-0.7717644578402882	0.0	1.0446293243861313	-0.5824891517370316	0.0	1.0418165325833484	-0.6582862524959692	0.0	1.042626100652116	-0.7460615508346032	0.0
78	2.626	0.9999446414606478	-0.40561408440972163	0.0	0.9872246679025745	-0.4041939692160389	0.0	0.972459446007598	-0.22737165422873729	0.0	1.053041224763172	-0.10516917274379396	0.0	1.0438103822409297	-0.041205718246559	0.0	1.058009798129096	-0.04552919261854676	0.0	1.0655210601003262	-0.09513282212405479	0.0	1.0087678106835287	-0.3998819988582198	0.0	1.0094800624492	-0.24883764870287253	0.0	1.05556184830159	-0.11544537758299049	0.0	1.0757205757033317	-0.05756837102059262	0.0	1.0630717806950905	-0.11531489567841538	0.0	1.073443738867135	-0.10197003204352259	0.0	1.0385771052655517	-0.6086770965731295	0.0	1.0900344324943623	-0.6739482950437831	0.0	1.0720544375354188	-0.662776950283323	0.0	1.0198717462955291	-0.600629753319888	0.0	1.0175641189587694	-0.6919279734027244	0.0	1.0358999303570582	-0.771994013707438	0.0	1.0485621490940036	-0.5831665863163572	0.0	1.0421298191985904	-0.6562460284635739	0.0	1.0431989344379635	-0.7456420412884535	0.0
79	2.6596666666666664	1.0005261625682564	-0.40579356862072224	0.0	0.9877567853315508	-0.40198406489110666	0.0	0.9539122723371968	-0.23920268308967832	0.0	1.0528171664874404	-0.12300189382654672	0.0	1.0493733681880033	-0.05332985853017868	0.0	1.0633452725883203	-0.05905924783779927	0.0	1.0686731539108565	-0.11266674444901263	0.0	1.0091888307267474	-0.39772064722752454	0.0	0.9998364518722905	-0.2589221951140896	0.0	1.0597786044203916	-0.13299858440388798	0.0	1.0795119735853393	-0.0727069914156692	0.0	1.0749056901924512	-0.07710383443163883	0.0	1.0849348218598054	-0.11895539112052828	0.0	1.0411772608680328	-0.610106712523951	0.0	1.0902137837463075	-0.6772737302703992	0.0	1.072705892237458	-0.6682141172971304	0.0	1.0209153343103252	-0.6014976758206395	0.0	1.0169906152679136	-0.6920123864369254	0.0	1.0357702050964739	-0.7724890539042184	0.0	1.0535111791987044	-0.5856701405201753	0.0	1.0433480183718742	-0.6565317651319102	0.0	1.0442418505383393	-0.7467491233143928	0.0
80	2.6933333333333334	1.0025193674271478	-0.40675790125546457	0.0	0.9906076600266551	-0.40107314423766144	0.0	0.9365967670592293	-0.2587335997858836	0.0	1.0462493009867195	-0.14721650143598827	0.0	1.0497885793370212	-0.07374859403444148	0.0	1.0619825705884178	-0.08009640137840522	0.0	1.0641192486358495	-0.13567745911223664	0.0	1.0104102086723243	-0.39578429732508036	0.0	0.9882955645319653	-0.27117169956519793	0.0	1.0600404095458393	-0.15278221025095381	0.0	1.0802032212038422	-0.09085799599063285	0.0	1.0853613648824278	-0.0727091659464598	0.0	1.0931887179566735	-0.1393603697476892	0.0	1.0436010508986069	-0.611935764511368	0.0	1.0898764463804504	-0.6815194800976481	0.0	1.0735029374136245	-0.6731860027610691	0.0	1.02161517312594	-0.6031249672992139	0.0	1.0165748479772192	-0.6921271931944838	0.0	1.0356314816357677	-0.7730574103230259	0.0	1.0584600123420922	-0.5895368068654562	0.0	1.0454568966867865	-0.6594473612676668	0.0	1.0455429682120105	-0.7490992443393932	0.0
81	2.727	1.005257003570716	-0.4079840242285404	0.0	0.9947686455616896	-0.4014569006923951	0.0	0.9227534315321607	-0.2871884687673878	0.0	1.0309537398978637	-0.17733066483856597	0.0	1.040878779642036	-0.10388844083147987	0.0	1.0494523158712188	-0.11008531611855746	0.0	1.0486758914018877	-0.16427347105044723	0.0	1.0119015242498195	-0.39398408237906296	0.0	0.975121419549322	-0.2834255381970637	0.0	1.0552312374504187	-0.17081028225625608	0.0	1.077322160566673	-0.10881550805943487	0.0	1.0921017051481683	-0.08579769849731984	0.0	1.0960634429349032	-0.15906292124823582	0.0	1.0453293124591128	-0.6135996928069735	0.0	1.0886299021148798	-0.6858550225110737	0.0	1.0739266641051652	-0.6761490070504789	0.0	1.021788046673683	-0.6050122352276743	0.0	1.0163224376921889	-0.6923683895645988	0.0	1.0355468126813887	-0.7735651421076865	0.0	1.062669158934659	-0.5936940285546634	0.0	1.0483036557589653	-0.6642607979928465	0.0	1.0468780662129593	-0.7520297749313373	0.0
